#N canvas 477 248 1354 982 10;
#X declare -path mmb;
#X declare -path cyclone;
#X declare -path RE-abs;
#X declare -path o-knob;
#X obj 1042 -358 *~ 1;
#X text 161 -44 rec;
#X obj 188 -317 vd~ head;
#X obj 186 -408 *~ 47;
#X obj 104 -87 *~;
#X obj 194 -51 dbtorms;
#X obj 111 -504 *~;
#N canvas 58 374 769 486 tapeloop 0;
#X obj 228 267 vd~ tape;
#X obj 228 299 *~ 0.005;
#X text 229 92 virtual stretching tape;
#X text 294 298 erasing head \, not perfectly aligned;
#X obj 228 342 *~, f 5;
#X obj 450 127 inlet;
#X msg 450 149 \$1 50;
#X obj 450 171 line~;
#X text 475 108 tape ""simulation"" amount;
#X obj 228 380 outlet~ feedback;
#X obj 227 165 inlet~ tapeloop;
#X obj 80 111 inlet~ tapespeed;
#X obj 229 212 delwrite~ tape 228340;
#X connect 0 0 1 0;
#X connect 1 0 4 0;
#X connect 4 0 9 0;
#X connect 5 0 6 0;
#X connect 6 0 7 0;
#X connect 7 0 4 1;
#X connect 10 0 12 0;
#X connect 11 0 0 0;
#X restore 108 -174 pd tapeloop;
#N canvas 238 210 1036 663 tapespeedeq 0;
#X obj 488 123 loadbang;
#X obj 238 551 outlet;
#X obj 87 267 t f f f;
#X obj 87 292 * 21.7391;
#X obj 87 314 - 30;
#X obj 174 314 + 6.08696;
#X obj 174 292 * -3.90435;
#X obj 300 289 * -7742;
#X obj 300 311 + 20000;
#X obj 141 373 pack f f f;
#X msg 141 400 hsgain \$1 \, pk1gain \$2 \, lpfreq \$3;
#X obj 87 126 inlet speed;
#X text 596 132 base settings;
#X text 203 46 slower -> lowpass;
#X text 203 70 modelled after the first head of my re-150;
#X msg 489 160 gain 2.30705 \, lpres 0.7079 \, lpactive 1 \, hsres
1.99526 \, hsfreq 3701.87 \, hsactive 1 \, pk1res 1.49249 \, pk1freq
4472.96 \, pk1active 1 \, hpres 0.707946 \, hpactive 1 \, hpfreq 130
;
#X obj 260 202 tgl 15 0 empty empty playhead_filter 17 7 0 10 -262144
-1 -1 1 1;
#X msg 511 263 lpactive \$1 \, hsactive \$1 \, pk1active \$1 \, hp1active
\$1;
#X obj 258 137 loadbang;
#X msg 255 167 1;
#X connect 0 0 15 0;
#X connect 2 0 3 0;
#X connect 2 1 6 0;
#X connect 2 2 7 0;
#X connect 3 0 4 0;
#X connect 4 0 9 0;
#X connect 5 0 9 1;
#X connect 6 0 5 0;
#X connect 7 0 8 0;
#X connect 8 0 9 2;
#X connect 9 0 10 0;
#X connect 10 0 1 0;
#X connect 11 0 2 0;
#X connect 15 0 1 0;
#X connect 16 0 17 0;
#X connect 17 0 1 0;
#X connect 18 0 19 0;
#X connect 19 0 16 0;
#X restore 297 -439 pd tapespeedeq;
#X obj 1131 -435 *~;
#X obj 1041 -435 *~;
#X obj 194 -31 gain;
#X obj 1060 -454 gain 2;
#X obj 1150 -454 gain 2;
#X obj 104 -57 tanh~;
#X obj 243 -218 eq7.mmb~;
#N canvas 357 171 1258 824 wow-flutter-etc~ 0;
#X obj 116 228 noise~;
#X obj 82 507 sig~ 1;
#X obj 209 577 +~;
#X obj 165 511 *~;
#X obj 439 369 pow 2;
#X obj 210 510 *~;
#X obj 270 510 *~;
#X obj 489 369 pow 2;
#X obj 539 369 pow 2;
#X obj 116 385 lop~ 0.1;
#X obj 116 407 lop~ 0.1;
#X obj 307 355 bp~ 50 0.707;
#X obj 440 345 * 1.5;
#X obj 490 345 * 0.3;
#X obj 540 345 * 0.3;
#X text 432 96 wow \, flutter \, noise;
#X obj 440 134 inlet;
#X obj 490 134 inlet;
#X obj 540 134 inlet;
#X obj 210 639 outlet~;
#X obj 208 355 bp~ 50 0.707;
#X obj 210 610 *~ 1;
#X connect 0 0 9 0;
#X connect 0 0 11 0;
#X connect 0 0 20 0;
#X connect 1 0 2 0;
#X connect 2 0 21 0;
#X connect 3 0 2 1;
#X connect 4 0 3 1;
#X connect 5 0 2 1;
#X connect 6 0 2 1;
#X connect 7 0 5 1;
#X connect 8 0 6 1;
#X connect 9 0 10 0;
#X connect 10 0 3 0;
#X connect 11 0 6 0;
#X connect 12 0 4 0;
#X connect 13 0 7 0;
#X connect 14 0 8 0;
#X connect 16 0 12 0;
#X connect 17 0 13 0;
#X connect 18 0 14 0;
#X connect 20 0 5 0;
#X connect 21 0 19 0;
#X restore 234 -562 pd wow-flutter-etc~;
#X obj 194 -95 * 30;
#X obj 194 -73 + 70;
#N canvas 7 72 721 325 things 0;
#X text 127 44 lospeed;
#X msg 24 67 gain 2.30705 \, lpres 0.7079 \, lpfreq 12258 \, lpactive
1 \, hsgain -8.26087 \, hsres 1.99526 \, hsfreq 3701.87 \, hsactive
1 \, pk1gain 2.18261 \, pk1res 1.49249 \, pk1freq 4472.96 \, pk1active
1 \, hpres 0.707946 \, hpactive 1 \, hpfreq 146.932;
#X msg 22 166 gain 2.30705 \, lpres 0.7079 \, lpfreq 20000 \, lpactive
1 \, hsgain -30 \, hsres 1.99526 \, hsfreq 3701.87 \, hsactive 1 \,
pk1gain 6.08696 \, pk1res 1.49249 \, pk1freq 4472.96 \, pk1active 1
\, hpres 0.707946 \, hpactive 1 \, hpfreq 146.932;
#X text 124 146 hispeed;
#X restore 1399 -27 pd things;
#X obj 1399 -125 declare -path mmb;
#X obj 1399 -104 declare -path cyclone;
#X obj 1399 -62 declare -path RE-abs;
#X obj 1399 -83 declare -path o-knob;
#X obj 275 -888 vsl 15 128 0 1 0 0 intensity empty intensity 0 -9 0
10 -262144 -1 -1 12100 1;
#X obj 445 -888 vsl 15 128 0 1 0 0 wow empty wow 0 -9 0 10 -262144
-1 -1 8500 1;
#X obj 496 -887 vsl 15 128 0.01 1 1 0 flutter empty flutter 0 -9 0
10 -262144 -1 -1 800 1;
#X obj 555 -888 vsl 15 128 0.01 1 1 0 dirt empty dirt 0 -9 0 10 -262144
-1 -1 900 1;
#X obj 910 -888 vsl 15 128 0 1 0 0 gain_inL empty gain_inL 0 -9 0 10
-262144 -1 -1 10000 1;
#X obj 965 -888 vsl 15 128 0 1 0 0 gain_inR empty gain_inR 0 -9 0 10
-262144 -1 -1 10500 1;
#X obj 215 -137 r intensity;
#X obj 198 -593 r wow;
#X obj 238 -592 r flutter;
#X obj 302 -592 r dirt;
#X obj 120 -239 r tapeloop_amount;
#X obj 1063 -522 r gain_inL;
#X obj 1147 -512 r gain_inR;
#X floatatom 297 -487 5 0 0 0 - - -, f 5;
#X floatatom 251 -103 5 0 0 0 - - -, f 5;
#X floatatom 1210 -467 5 0 0 0 - - -, f 5;
#X obj 271 -24 dac~;
#X obj 71 -600 sig~;
#X obj 63 -566 lop~ 0.1;
#X floatatom 71 -657 5 0 0 0 - - -, f 5;
#X obj 61 -732 loadbang;
#X obj 1108 -632 readsf~;
#X msg 1033 -670 stop;
#X obj 91 -877 vsl 15 128 0.001 2 1 0 speed_eq empty speed_eq 0 -9
0 10 -262144 -1 -1 10150 1;
#X obj 298 -521 r speed_eq;
#X msg 66 -697 100;
#X obj 103 30 delwrite~ head 6000;
#X msg 1109 -668 open pianoDENOISE.wav \, start;
#X obj 98 -631 +;
#X obj 119 -654 t b f;
#X floatatom 131 -699 5 0 0 0 - - -, f 5;
#X obj 673 -890 vsl 15 128 0.01 200 1 0 tapeloop_amount empty tapeloop_amount
0 -9 0 10 -262144 -1 -1 10100 1;
#X obj 133 -678 / 10;
#X obj 169 -881 vsl 15 128 -100 100 0 0 pull_tape empty pull_tape 0
-9 0 10 -262144 -1 -1 6800 1;
#X obj 185 -717 r pull_tape;
#X connect 0 0 50 0;
#X connect 2 0 15 0;
#X connect 3 0 2 0;
#X connect 4 0 14 0;
#X connect 5 0 11 0;
#X connect 6 0 7 0;
#X connect 6 0 3 0;
#X connect 7 0 4 0;
#X connect 8 0 15 1;
#X connect 9 0 0 0;
#X connect 10 0 0 0;
#X connect 11 0 4 1;
#X connect 12 0 10 1;
#X connect 13 0 9 1;
#X connect 14 0 40 0;
#X connect 14 0 40 1;
#X connect 14 0 50 0;
#X connect 15 0 7 1;
#X connect 15 0 4 0;
#X connect 16 0 6 1;
#X connect 17 0 18 0;
#X connect 18 0 5 0;
#X connect 30 0 17 0;
#X connect 30 0 38 0;
#X connect 31 0 16 0;
#X connect 32 0 16 1;
#X connect 33 0 16 2;
#X connect 34 0 7 2;
#X connect 35 0 12 0;
#X connect 36 0 13 0;
#X connect 36 0 39 0;
#X connect 37 0 8 0;
#X connect 41 0 42 0;
#X connect 42 0 6 0;
#X connect 43 0 52 0;
#X connect 44 0 49 0;
#X connect 45 0 10 0;
#X connect 45 0 9 0;
#X connect 45 1 51 0;
#X connect 46 0 45 0;
#X connect 48 0 37 0;
#X connect 49 0 43 0;
#X connect 51 0 45 0;
#X connect 52 0 41 0;
#X connect 53 0 52 0;
#X connect 53 1 52 1;
#X connect 54 0 56 0;
#X connect 56 0 53 0;
#X connect 58 0 54 0;
