#N canvas 596 194 1354 1005 10;
#X declare -path mmb;
#X declare -path cyclone;
#X declare -path RE-abs;
#X obj 436 -45 *~ 1;
#X text 172 182 rec;
#X obj 199 -91 vd~ head;
#X obj 197 -182 *~ 47;
#X obj 115 139 *~;
#X obj 205 175 dbtorms;
#X obj 122 -278 *~;
#N canvas 55 372 769 486 tapeloop 0;
#X obj 228 267 vd~ tape;
#X obj 228 299 *~ 0.005;
#X text 229 92 virtual stretching tape;
#X text 294 298 erasing head \, not perfectly aligned;
#X obj 228 342 *~, f 5;
#X obj 450 127 inlet;
#X msg 450 149 \$1 50;
#X obj 450 171 line~;
#X text 475 108 tape ""simulation"" amount;
#X obj 228 380 outlet~ feedback;
#X obj 227 165 inlet~ tapeloop;
#X obj 80 111 inlet~ tapespeed;
#X obj 229 212 delwrite~ tape 228340;
#X connect 0 0 1 0;
#X connect 1 0 4 0;
#X connect 4 0 9 0;
#X connect 5 0 6 0;
#X connect 6 0 7 0;
#X connect 7 0 4 1;
#X connect 10 0 12 0;
#X connect 11 0 0 0;
#X restore 119 52 pd tapeloop;
#N canvas 238 210 1036 663 tapespeedeq 0;
#X obj 488 123 loadbang;
#X obj 238 551 outlet;
#X obj 87 267 t f f f;
#X obj 87 292 * 21.7391;
#X obj 87 314 - 30;
#X obj 174 314 + 6.08696;
#X obj 174 292 * -3.90435;
#X obj 300 289 * -7742;
#X obj 300 311 + 20000;
#X obj 141 373 pack f f f;
#X msg 141 400 hsgain \$1 \, pk1gain \$2 \, lpfreq \$3;
#X obj 87 126 inlet speed;
#X text 596 132 base settings;
#X text 203 46 slower -> lowpass;
#X text 203 70 modelled after the first head of my re-150;
#X msg 489 160 gain 2.30705 \, lpres 0.7079 \, lpactive 1 \, hsres
1.99526 \, hsfreq 3701.87 \, hsactive 1 \, pk1res 1.49249 \, pk1freq
4472.96 \, pk1active 1 \, hpres 0.707946 \, hpactive 1 \, hpfreq 130
;
#X obj 260 202 tgl 15 0 empty empty playhead_filter 17 7 0 10 -262144
-1 -1 1 1;
#X msg 511 263 lpactive \$1 \, hsactive \$1 \, pk1active \$1 \, hp1active
\$1;
#X obj 258 137 loadbang;
#X msg 255 167 1;
#X connect 0 0 15 0;
#X connect 2 0 3 0;
#X connect 2 1 6 0;
#X connect 2 2 7 0;
#X connect 3 0 4 0;
#X connect 4 0 9 0;
#X connect 5 0 9 1;
#X connect 6 0 5 0;
#X connect 7 0 8 0;
#X connect 8 0 9 2;
#X connect 9 0 10 0;
#X connect 10 0 1 0;
#X connect 11 0 2 0;
#X connect 15 0 1 0;
#X connect 16 0 17 0;
#X connect 17 0 1 0;
#X connect 18 0 19 0;
#X connect 19 0 16 0;
#X restore 308 -213 pd tapespeedeq;
#X obj 525 -122 *~;
#X obj 435 -122 *~;
#X obj 205 195 gain;
#X obj 454 -141 gain 2;
#X obj 544 -141 gain 2;
#X obj 115 169 tanh~;
#X obj 254 8 eq7.mmb~;
#N canvas 1242 198 1258 824 wow-flutter-etc~ 0;
#X obj 116 228 noise~;
#X obj 82 507 sig~ 1;
#X obj 209 577 +~;
#X obj 165 511 *~;
#X obj 439 369 pow 2;
#X obj 210 510 *~;
#X obj 270 510 *~;
#X obj 489 369 pow 2;
#X obj 539 369 pow 2;
#X obj 116 385 lop~ 0.1;
#X obj 116 407 lop~ 0.1;
#X obj 307 355 bp~ 50 0.707;
#X obj 440 345 * 1.5;
#X obj 490 345 * 0.3;
#X obj 540 345 * 0.3;
#X text 432 96 wow \, flutter \, noise;
#X obj 440 134 inlet;
#X obj 490 134 inlet;
#X obj 540 134 inlet;
#X obj 210 639 outlet~;
#X obj 208 355 bp~ 50 0.707;
#X obj 210 610 *~ 1;
#X obj 375 386 sig~;
#X obj 376 410 lop~ 0.1;
#X obj 449 395 sig~;
#X obj 450 419 lop~ 0.1;
#X obj 539 401 sig~;
#X obj 540 425 lop~ 0.1;
#X connect 0 0 9 0;
#X connect 0 0 11 0;
#X connect 0 0 20 0;
#X connect 1 0 2 0;
#X connect 2 0 21 0;
#X connect 3 0 2 1;
#X connect 4 0 22 0;
#X connect 5 0 2 1;
#X connect 6 0 2 1;
#X connect 7 0 24 0;
#X connect 8 0 26 0;
#X connect 9 0 10 0;
#X connect 10 0 3 0;
#X connect 11 0 6 0;
#X connect 12 0 4 0;
#X connect 13 0 7 0;
#X connect 14 0 8 0;
#X connect 16 0 12 0;
#X connect 17 0 13 0;
#X connect 18 0 14 0;
#X connect 20 0 5 0;
#X connect 21 0 19 0;
#X connect 22 0 23 0;
#X connect 23 0 3 1;
#X connect 24 0 25 0;
#X connect 25 0 5 1;
#X connect 26 0 27 0;
#X connect 27 0 6 1;
#X restore 245 -336 pd wow-flutter-etc~;
#X obj 205 131 * 30;
#X obj 205 153 + 70;
#X obj 879 -225 declare -path mmb;
#X obj 879 -204 declare -path cyclone;
#X obj 199 -688 vsl 15 128 0 1.2 0 0 intensity intensity intensity
0 -9 0 10 -262144 -1 -1 10583 1;
#X obj 646 -685 vsl 15 128 0 1 0 0 wow wow wow 0 -9 0 10 -262144 -1
-1 4700 1;
#X obj 717 -684 vsl 15 128 0.01 1 0 0 flutter flutter flutter 0 -9
0 10 -262144 -1 -1 0 1;
#X obj 776 -685 vsl 15 128 0.01 1 0 0 dirt dirt dirt 0 -9 0 10 -262144
-1 -1 513 1;
#X obj 1131 -685 vsl 15 128 0 1 0 0 gain_inL gain_inL gain_inL 0 -9
0 10 -262144 -1 -1 12700 1;
#X obj 1186 -685 vsl 15 128 0 1 0 0 gain_inR gain_inR gain_inR 0 -9
0 10 -262144 -1 -1 12700 1;
#X obj 226 89 r intensity;
#X obj 209 -367 r wow;
#X obj 249 -366 r flutter;
#X obj 313 -366 r dirt;
#X obj 131 -13 r tapeloop_amount;
#X obj 457 -209 r gain_inL;
#X obj 541 -199 r gain_inR;
#X floatatom 308 -261 5 0 0 0 - - -, f 5;
#X floatatom 262 123 5 0 0 0 - - -, f 5;
#X floatatom 604 -154 5 0 0 0 - - -, f 5;
#X obj 282 202 dac~;
#X obj 82 -374 sig~;
#X floatatom 82 -431 5 0 0 0 - - -, f 5;
#X obj 72 -506 loadbang;
#X obj 307 -683 vsl 15 128 0.001 2 0 0 speed_eq speed_eq speed_eq 0
-9 0 10 -262144 -1 -1 10999 1;
#X obj 309 -295 r speed_eq;
#X obj 109 -405 +;
#X obj 130 -428 t b f;
#X floatatom 142 -473 5 0 0 0 - - -, f 5;
#X obj 949 -686 vsl 15 128 0.01 200 0 0 tapeloop_amount tapeloop_amount
tapeloop_amount 0 -9 0 10 -262144 -1 -1 5091 1;
#X obj 144 -452 / 10;
#X obj 432 -680 vsl 15 128 -100 100 0 0 pull_tape pull_tape pull_tape
0 -9 0 10 -262144 -1 -1 6500 1;
#X obj 143 -497 r pull_tape;
#X text 733 -521 counter for when 6 seconds is up \, blink lights;
#X obj 880 -184 declare -path RE-abs;
#X obj 885 -468 loadbang;
#X floatatom 474 -178 5 0 0 0 - - -, f 5;
#X obj 117 259 delwrite~ head 8000;
#X obj 467 -319 adc~;
#X msg 77 -470 100;
#X obj 73 -339 lop~ 0.1;
#X obj 101 -661 fad 0;
#X obj 221 -673 fad 1;
#X obj 100 -599 s intensity;
#X obj 221 -607 s speed_eq;
#X obj 344 -575 s pull_tape;
#X obj 338 -673 fad 2;
#X obj 349 -640 - 0.5;
#X obj 361 -606 * 200;
#X obj 591 -673 fad 3;
#X obj 590 -646 s wow;
#X obj 488 -634 fad 4;
#X obj 484 -539 s flutter;
#X obj 575 -603 fad 5;
#X obj 576 -548 s dirt;
#X obj 844 -661 fad 6;
#X obj 843 -634 s tapeloop_amount;
#X floatatom 672 -520 5 0 0 0 - - -, f 5;
#X msg 882 -430 \; pull_tape 0 \; speed_eq 1 \; intensity 1 \; wow
0.8 \; flutter 0.033 \; dirt 0.01 \; tapeloop_amount 0.53 \; gain_inL
1 \; gain_inR 1 \;;
#X floatatom 510 -564 5 0 0 0 - - -, f 5;
#X obj 487 -601 / 50;
#X obj 575 -571 / 20;
#X obj 236 -638 * 2;
#X obj 111 -628 * 1;
#X connect 0 0 54 0;
#X connect 2 0 15 0;
#X connect 3 0 2 0;
#X connect 4 0 14 0;
#X connect 5 0 11 0;
#X connect 6 0 7 0;
#X connect 6 0 3 0;
#X connect 7 0 4 0;
#X connect 8 0 15 1;
#X connect 9 0 0 0;
#X connect 10 0 0 0;
#X connect 11 0 4 1;
#X connect 12 0 10 1;
#X connect 13 0 9 1;
#X connect 14 0 37 0;
#X connect 14 0 37 1;
#X connect 14 0 54 0;
#X connect 15 0 7 1;
#X connect 15 0 4 0;
#X connect 16 0 6 1;
#X connect 17 0 18 0;
#X connect 18 0 5 0;
#X connect 23 0 74 0;
#X connect 25 0 26 0;
#X connect 27 0 17 0;
#X connect 27 0 35 0;
#X connect 28 0 16 0;
#X connect 29 0 16 1;
#X connect 30 0 16 2;
#X connect 31 0 7 2;
#X connect 32 0 12 0;
#X connect 32 0 53 0;
#X connect 33 0 13 0;
#X connect 33 0 36 0;
#X connect 34 0 8 0;
#X connect 38 0 57 0;
#X connect 39 0 43 0;
#X connect 40 0 56 0;
#X connect 42 0 34 0;
#X connect 43 0 38 0;
#X connect 44 0 43 0;
#X connect 44 1 43 1;
#X connect 45 0 47 0;
#X connect 47 0 44 0;
#X connect 49 0 45 0;
#X connect 52 0 75 0;
#X connect 55 0 10 0;
#X connect 55 1 9 0;
#X connect 56 0 39 0;
#X connect 57 0 6 0;
#X connect 58 0 80 0;
#X connect 59 0 79 0;
#X connect 63 0 64 0;
#X connect 64 0 65 0;
#X connect 65 0 62 0;
#X connect 66 0 67 0;
#X connect 68 0 77 0;
#X connect 70 0 78 0;
#X connect 72 0 73 0;
#X connect 77 0 69 0;
#X connect 77 0 76 0;
#X connect 78 0 71 0;
#X connect 79 0 61 0;
#X connect 80 0 60 0;
